<?xml version="1.0" encoding="utf-8"?>
<!-- Generator: Adobe Illustrator 20.1.0, SVG Export Plug-In . SVG Version: 6.00 Build 0)  -->
<svg version="1.1" id="Laag_1" xmlns="http://www.w3.org/2000/svg" xmlns:xlink="http://www.w3.org/1999/xlink" x="0px" y="0px"
	 viewBox="0 0 124.2 135" style="enable-background:new 0 0 124.2 135;" xml:space="preserve">
<g>
	<path fill="#eeeeee" d="M58,98.5c-1.7,0-3.4,0.3-5,0.5c-2,0.3-4,0.6-5.9,1.1c-1.4,0.4-2.8,0.8-4.2,1.2c-0.9,0.3-1.8,0.5-2.6,0.9
		c-0.9,0.3-1.7,0.7-2.5,1.1c-0.9,0.4-1.8,0.8-2.6,1.2c-1,0.5-2,1-2.9,1.6c-1,0.5-1.9,1.1-2.9,1.7c-1.3,0.9-2.7,1.8-3.9,2.8
		c-1.1,0.9-2.2,1.8-3.3,2.8c-1.5,1.3-2.9,2.7-4.4,4c-0.2,0.2-0.5,0.5-0.7,0.7c-0.3,0.3-0.4,0.3-0.7,0c-0.8-0.8-1.7-1.6-2.5-2.5
		c-1.2-1.3-2.4-2.7-3.5-4.1c-1.1-1.3-2.1-2.6-3-4.1c-1.2-1.8-2.3-3.5-3.5-5.3c-1-1.6-2-3.3-3-5c-0.2-0.4-0.4-0.9-0.7-1.3
		c-0.3-0.5-0.2-1.1-0.2-1.6c0-2.5,0-4.9-0.1-7.4c0-0.3,0.1-0.6,0.1-0.9c0-1.3,0-2.5,0-3.8c0-0.9,0-1.8-0.1-2.7
		c0-0.6,0.1-0.7,0.7-0.7c1.8,0,3.6,0,5.5,0c0.3,0,0.6,0,0.9,0c0.3,0,0.4,0.1,0.4,0.4c0,0.7,0,1.4,0,2.1c0,0.2-0.1,0.4,0,0.6
		c0,1.2,0.1,2.3,0.1,3.5c0,1.3,0,2.7,0,4c0,1.3,0.1,2.6,0.1,3.8c0,0.2,0.1,0.4,0.2,0.5c1.2,2.3,2.6,4.4,4,6.6
		c0.8,1.2,1.5,2.5,2.4,3.6c0.7,1,1.5,1.9,2.3,2.9c0.2,0.2,0.4,0.5,0.7,0.7c2.3-1.7,4.5-3.5,6.8-5.1c2.4-1.6,4.9-2.9,7.3-4.3
		c0-2.1,0-4.2,0-6.2c0-1.5,0-3,0-4.5c0-0.7-0.1-1.4-0.1-2.1c-0.1-1.7-0.1-3.4-0.1-5c0-0.6-0.2-1-0.6-1.4c-1.6-1.5-3.2-3.1-4.9-4.7
		c-0.9-0.8-1.8-1.6-2.7-2.4c-0.4-0.4-0.7-0.4-1.2-0.4c-1.8,0-3.5,0-5.3-0.1c-1.6,0-3.1-0.1-4.7-0.1c-0.3-0.2-0.3-0.6-0.3-1
		c0-0.8,0-1.6,0-2.4c0-1.2,0-2.4-0.2-3.6c0-0.4,0.1-0.5,0.5-0.6c0.2,0,0.4,0,0.6,0c1.3,0,2.6,0,4,0c1.6,0,3.2,0.1,4.8,0.1
		c0.5,0,0.9,0,1.4,0c0.2,0,0.4-0.1,0.5-0.2c1.6-1.4,3.2-2.9,4.8-4.3c0.8-0.7,1.5-1.4,2.2-2.1c0.4-0.4,0.9-0.9,1.3-1.3
		c0.2-0.2,0.2-0.4,0.3-0.7c0-0.2,0-0.3,0-0.5c-0.1-1.3,0-2.6,0-3.9c0-1.7-0.1-3.4-0.1-5.1c0-0.8,0.1-1.5,0.1-2.3
		c0-1,0.2-1.9,0.1-2.9c-0.1-0.9,0-1.9,0-2.9c-2.6-1.5-5.1-2.9-7.6-4.6c-2.4-1.7-4.8-3.4-7-5.4c-0.6,0.7-1.2,1.4-1.8,2.2
		c-1.2,1.7-2.4,3.4-3.6,5.2c-0.8,1.2-1.4,2.4-2.2,3.5c-0.5,0.8-1,1.6-1.4,2.4c-0.2,0.3-0.3,0.7-0.3,1c0,1.9,0,3.8,0,5.7
		c0,0.9,0,1.8,0,2.7c0,0.9-0.1,1.8-0.1,2.6c0,0.9,0.1,1.8,0.1,2.7c0,0.2,0,0.5,0,0.8c-0.4,0-0.8,0.1-1.2,0.1c-1.8,0-3.6,0-5.4,0
		c-0.2,0-0.4,0-0.6,0c-0.3,0-0.5-0.2-0.5-0.5c0-0.2,0-0.4,0-0.6c0-1.4,0.1-2.8,0.1-4.2c0-1.2-0.1-2.4-0.1-3.6c0-1.4,0.1-2.9,0.1-4.3
		c0-0.8-0.1-1.5-0.1-2.3c0-0.2,0-0.4,0-0.6c0-1.1,0.6-1.9,1.1-2.8C1.7,36.1,2.3,35,2.9,34c1-1.5,2-3,3-4.6c0.5-0.8,1-1.6,1.5-2.3
		c0.3-0.4,0.5-0.8,0.8-1.1C8.6,25.5,9,25,9.3,24.5c1.1-1.6,2.4-2.9,3.8-4.3c0.5-0.5,0.9-1,1.4-1.5c0.6-0.6,1.2-1.1,1.9-1.7
		c0.2-0.2,0.5-0.3,0.7-0.4c0.8,0.8,1.5,1.5,2.3,2.2c0.7,0.6,1.4,1.3,2.1,1.9c0.5,0.5,1,0.9,1.6,1.3c1.3,1.1,2.6,2.1,3.9,3.1
		c1.3,1,2.7,1.8,4,2.8c1.3,0.9,2.7,1.7,4.1,2.4c1.3,0.7,2.7,1.3,4,1.9c1.1,0.5,2.2,0.9,3.3,1.3c1.5,0.5,2.9,0.8,4.4,1.2
		c0.9,0.2,1.8,0.5,2.7,0.6c0.7,0.1,1.4,0.2,2,0.3c0.6,0.1,1.2,0.2,1.9,0.3c1.3,0.1,2.7,0.3,4,0.4c0.3,0,0.6,0.1,0.9,0.1
		c0-0.3,0.1-0.6,0.1-0.8c0-1.4,0-2.8,0-4.2c0-0.8,0.1-1.6,0.1-2.4c0-0.8-0.1-1.7-0.1-2.5c0-1,0-2,0-3.1c0-2,0-4,0-6
		c0-0.6,0.1-0.7,0.7-0.8c0.9-0.1,1.8-0.1,2.8-0.1c1.1,0,2.3,0,3.4,0.1c0.7,0,0.8,0.1,0.8,0.8c-0.1,2.3-0.2,4.6-0.1,6.9
		c0,1.3,0,2.6,0,3.9c0,1.4,0,2.8,0,4.1c0,1.3,0.1,2.6,0.1,4c0.4,0,0.9-0.1,1.3-0.1c0.7-0.1,1.5-0.1,2.2-0.2c1.1-0.1,2.2-0.3,3.3-0.4
		c2.3-0.4,4.6-0.9,6.8-1.6c1.5-0.4,3.1-1,4.6-1.6c1.6-0.6,3.2-1.3,4.7-2c0.8-0.4,1.6-0.9,2.4-1.3c1-0.6,2-1.2,3-1.8
		c0.7-0.4,1.4-0.9,2.1-1.4c0.7-0.5,1.4-1,2.1-1.5c0.7-0.5,1.3-1.1,1.9-1.6c1.1-0.9,2.1-1.9,3.2-2.9c1.1-1,2.1-2,3.1-3
		c0.4-0.4,0.6-0.5,1,0c1.4,1.4,2.8,2.7,4.1,4.1c0.9,1,1.7,2,2.5,3.1c1.2,1.6,2.5,3.2,3.6,4.9c1,1.4,1.8,3,2.7,4.4
		c0.7,1.2,1.4,2.4,2.1,3.6c0.5,0.8,0.9,1.7,1.3,2.5c0.2,0.4,0.2,0.9,0.2,1.4c0,2.4-0.1,4.7-0.1,7.1c0,1.5-0.1,3-0.1,4.5
		c0,1,0.1,1.9,0.1,2.9c0,0.6,0,0.7-0.7,0.7c-1.1,0-2.2,0-3.3,0c-0.8,0-1.6,0.1-2.5,0.1c-0.3,0-0.6,0-1,0c0-0.2-0.1-0.4-0.1-0.5
		c0-0.9,0.1-1.8,0.1-2.7c0-0.8-0.1-1.5-0.1-2.3c0-1.8,0-3.6,0-5.3c0-1.3-0.1-2.5-0.1-3.8c0-0.4-0.2-0.8-0.4-1.2
		c-0.8-1.3-1.5-2.5-2.3-3.8c-1.2-1.9-2.5-3.7-3.9-5.5c-0.8-0.9-1.5-1.9-2.2-2.8c-0.3-0.3-0.6-0.6-0.9-1c-4.2,4-8.8,7.1-13.9,9.7
		c-0.1,1.6-0.2,3.1-0.2,4.7c0,2,0,4.1,0,6.1c0,1.8,0,3.6,0,5.3c0,0.1,0,0.1,0,0.2c0,0.6-0.1,1.2,0.1,1.7c0.2,0.5,0.7,0.8,1.1,1.2
		c1.3,1.3,2.6,2.6,4,3.9c1.1,1,2.2,2,3.3,3.1c0.2,0.2,0.4,0.3,0.7,0.3c1.2,0,2.5,0.1,3.7,0.1c2.1,0,4.2,0,6.3,0.1
		c0.1,0,0.1,0,0.2,0.1c0,0.1,0,0.3,0,0.4c0,1.5,0,3.1,0,4.6c0,0.7,0.1,1.3,0.1,2c0,0.6,0,0.6-0.6,0.6c-1.3,0-2.6,0-4,0
		c-2,0-4,0-5.9,0c-0.3,0-0.5,0.1-0.7,0.3c-1.6,1.5-3.2,3.1-4.8,4.6c-0.8,0.8-1.6,1.6-2.4,2.5c-0.3,0.3-0.6,0.5-0.9,0.8
		c-0.1,0.1-0.2,0.4-0.2,0.5c0,0.9,0.1,1.8,0.1,2.7c0,2.1,0,4.2,0,6.3c0,1,0,2,0,3c0,1.1,0,2.2,0,3.2c0,0.9,0.1,1.7,0.1,2.6
		c5.2,2.5,9.8,5.9,14.3,9.6c0.1-0.1,0.1-0.1,0.2-0.2c0.8-0.9,1.5-1.8,2.3-2.7c1-1.2,1.9-2.4,2.7-3.8c0.6-1,1.2-2,1.8-3
		c0.7-1.1,1.3-2.3,1.9-3.6c0.4-0.9,0.4-1.8,0.4-2.8c0.1-1.4-0.1-2.7-0.1-4.1c0-0.4,0.1-0.9,0.1-1.3c0-0.3-0.1-0.6-0.1-0.9
		c0-0.7,0.1-1.3,0.1-2c0-1.3,0-2.5,0-3.8c0-0.2,0-0.4,0-0.5c0.5-0.2,5.8-0.2,7.5-0.1c0,0.1,0.1,0.3,0.1,0.4c0,1.2,0.1,2.3,0.1,3.5
		c0,1.5,0,3,0,4.5c0,1.4,0,2.8,0,4.2c0,1,0.1,1.9,0.1,2.9c0,0.5-0.1,0.9-0.2,1.3c-0.5,1.5-1.3,2.9-2.1,4.3c-1.1,2-2.4,4-3.8,5.8
		c-1.9,2.4-3.7,4.9-5.6,7.3c-0.5,0.6-1,1.2-1.6,1.7c-1,1.1-2,2.1-2.9,3.2c-0.2,0.2-0.4,0.4-0.7,0.6c-0.3-0.2-0.5-0.4-0.7-0.7
		c-0.7-0.8-1.5-1.6-2.3-2.3c-1-0.9-1.9-1.8-2.9-2.7c-1.4-1.2-2.8-2.5-4.2-3.7c-0.8-0.7-1.7-1.2-2.6-1.8c-2.2-1.4-4.5-2.6-6.9-3.7
		c-1.5-0.7-3.1-1.5-4.6-2c-1.6-0.6-3.4-1-5-1.5c-1.7-0.5-3.5-0.8-5.3-1.1c-1.2-0.2-2.5-0.4-3.7-0.6c-0.9-0.1-1.8-0.2-2.7-0.3
		c-0.2,0-0.3,0-0.6,0c0,0.6,0,1.1,0,1.6c0,1,0,2.1,0,3.1c0,2.4-0.1,4.9-0.1,7.3c0,1.3,0.1,2.6,0.1,3.9c0,1,0,2-0.1,3.1
		c0,0.4-0.1,0.5-0.5,0.5c-1.9,0.2-3.7,0.1-5.6,0.1c-0.3,0-0.6,0-0.9,0c-0.2,0-0.4-0.1-0.4-0.4c0-0.6,0-1.2,0-1.8c0-1.2,0-2.4,0-3.6
		c0-0.9,0-1.8-0.1-2.7c0-0.5-0.1-1.1-0.1-1.6c0-0.8,0.1-1.6,0.1-2.4c0-1.7-0.1-3.4-0.1-5.1C58,99.9,58,99.2,58,98.5z M93.9,67.6
		c-0.1-0.1-0.1-0.2-0.2-0.3c-1.2-1.2-2.4-2.4-3.6-3.5c-0.8-0.8-1.6-1.5-2.4-2.3c-0.9-0.9-1.7-1.7-2.5-2.6c-0.1-0.1-0.2-0.4-0.2-0.5
		c0-0.6,0-1.2,0-1.7c0-1.9,0.1-3.7,0.1-5.6c0-1.3,0-2.6,0-3.9c0-1.9,0.1-3.8,0.1-5.7c0-0.3,0-0.6,0-1c-0.3,0.1-0.5,0.2-0.8,0.2
		c-1.4,0.4-2.8,0.9-4.2,1.3c-1,0.3-2,0.5-3,0.7c-1.2,0.3-2.5,0.6-3.7,0.8c-0.8,0.1-1.5,0.2-2.3,0.3c-1.7,0.2-3.4,0.4-5.1,0.5
		c-1.6,0.1-3.2,0.3-4.8,0.2c-0.7,0-1.5,0-2.2,0c-1,0-2-0.1-2.9-0.2c-0.9-0.1-1.7-0.2-2.6-0.3c-1.9-0.1-3.8-0.5-5.7-1
		c-0.8-0.2-1.7-0.4-2.5-0.6c-0.8-0.2-1.7-0.4-2.5-0.6c-1-0.3-2-0.7-3.1-1.1c-0.2-0.1-0.4-0.1-0.7-0.2c0,1-0.1,1.9-0.1,2.8
		c0,2.3,0,4.5,0,6.8c0,1.5,0,3,0.1,4.5c0,1.1,0,2.1,0.1,3.2c0,0.7-0.3,1.2-0.8,1.6c-0.1,0.1-0.2,0.1-0.2,0.2
		c-1.4,1.4-2.7,2.8-4.1,4.2c-0.9,0.9-1.7,1.7-2.6,2.5c-0.4,0.4-0.9,0.9-1.4,1.4c0.3,0.3,0.5,0.4,0.7,0.6c1.1,1,2.3,2.1,3.3,3.1
		c1.6,1.6,3.2,3.2,4.7,4.9c0.2,0.2,0.3,0.4,0.3,0.7c0,1.4-0.1,2.7-0.1,4.1c0,1.9,0.1,3.8,0.2,5.8c0,1.3,0,2.6,0,4
		c0,1.2,0.1,2.5,0.1,3.7c0,0.1,0,0.2,0.1,0.3c0.6-0.2,1.2-0.4,1.8-0.6c0.7-0.2,1.4-0.4,2-0.6c1.1-0.3,2.3-0.7,3.4-1
		c1.8-0.5,3.6-0.7,5.5-1.1c2-0.3,4-0.6,6-0.7c1.6-0.1,3.3-0.1,4.9-0.1c0.6,0,1.1,0,1.7,0c1.4,0.1,2.8,0.3,4.2,0.5
		c1.1,0.1,2.3,0.2,3.4,0.4c1.5,0.3,3,0.5,4.5,0.9c2.7,0.6,5.3,1.3,7.9,2.2c0.1,0,0.3,0,0.5,0.1c0-0.3,0-0.6,0-0.9
		c0-0.6-0.1-1.1-0.1-1.7c0-0.7,0.1-1.4,0.1-2.1c0-1.3,0-2.6,0-3.9c0-2.9,0.1-5.9-0.1-8.8c0-0.4,0.1-0.7,0.4-1
		c0.8-0.8,1.6-1.6,2.4-2.3c0.6-0.6,1.3-1.2,1.9-1.9c0.6-0.6,1.1-1.2,1.7-1.8c0.5-0.5,1-1,1.5-1.5C93.3,68.3,93.6,68,93.9,67.6z"/>
	<path fill="#eeeeee" d="M47,126.2c0.3,0,0.3-0.3,0.4-0.5c0.3-1,0.6-2.1,0.9-3.1c0.2-0.9,0.5-1.8,0.7-2.7c0-0.2,0.1-0.3,0.2-0.4
		c0.8,0.2,1.5,0.4,2.2,0.6c0.5,0.1,0.6,0.3,0.5,0.8c-0.1,0.6-0.3,1.1-0.4,1.6c-0.3,1.4-0.7,2.8-1.1,4.2c-0.6,2-1,4-1.5,5.9
		c-0.1,0.4-0.2,0.8-0.4,1.3c-0.2,0-0.4,0-0.6,0c-0.6-0.2-1.3-0.4-1.9-0.6c-0.4-0.1-0.5-0.3-0.6-0.7c-0.4-1.6-0.9-3.2-1.3-4.9
		c-0.2-0.8-0.3-1.6-0.5-2.4c0-0.1-0.1-0.2-0.2-0.5c-0.8,2.4-1.3,4.9-2.1,7.2c-0.9-0.3-1.8-0.5-2.7-0.7c-0.3-0.1-0.3-0.3-0.3-0.6
		c0.2-0.8,0.3-1.6,0.6-2.4c0.6-2.2,1.3-4.4,2-6.6c0.3-1.1,0.7-2.3,1-3.4c0.1-0.5,0.3-0.6,0.8-0.5c0.7,0.2,1.4,0.5,2.1,0.8
		c0.1,0.1,0.3,0.3,0.3,0.5c0.4,1.3,0.7,2.7,1.1,4c0.3,1,0.5,1.9,0.8,2.8C46.9,125.9,47,126,47,126.2z"/>
	<path fill="#eeeeee" d="M75.4,1.2c1,0.2,1.9,0.5,2.8,0.7c0.7,2.6,1.4,5.3,2.1,7.9c0.1,0,0.1,0,0.2,0c0.7-2.2,1.4-4.4,2-6.7c1,0.2,2,0.4,3,0.6
		c0,0.6-0.1,1.2-0.3,1.7c-0.7,2.3-1.4,4.7-2.1,7c-0.5,1.6-0.9,3.2-1.4,4.9c-0.2,0-0.4,0-0.6,0c-0.6-0.1-1.1-0.3-1.7-0.4
		c-0.3-0.1-0.4-0.2-0.5-0.5c-0.5-1.8-1-3.6-1.5-5.4c-0.2-0.6-0.3-1.3-0.4-1.9c-0.1-0.3-0.2-0.6-0.4-1c-0.2,0.8-0.4,1.5-0.6,2.3
		c-0.4,1.5-0.7,2.9-1.1,4.4c0,0.1-0.1,0.2-0.1,0.4c-0.1,0.2-0.2,0.3-0.5,0.3c-0.4-0.1-0.7-0.2-1.1-0.3c-0.3-0.1-0.7-0.2-1-0.3
		c-0.3-0.1-0.5-0.2-0.4-0.6c0-0.1,0-0.2,0-0.3c0.5-1.8,1-3.7,1.5-5.5c0.4-1.5,0.8-2.9,1.2-4.3C74.8,3.4,75.1,2.4,75.4,1.2z"/>
	<path fill="#eeeeee" d="M94.1,24.1c-1-0.5-1.9-1-2.8-1.5c1.8-3.2,3.5-6.4,5.3-9.6c-1.1-0.7-2.2-1.3-3.3-1.9c-1.9,3.1-3.8,6.2-5.7,9.4
		c-0.8-0.5-1.8-0.8-2.6-1.5c0.3-0.6,0.6-1.1,0.9-1.7c0.8-1.4,1.6-2.8,2.4-4.2c0.7-1.2,1.4-2.3,2-3.5c0.2-0.4,0.5-0.8,0.7-1.3
		c0.1-0.1,0.2-0.2,0.3-0.3c0.6-0.2,1.2-0.4,1.8-0.6c0.3-0.1,0.5-0.1,0.8,0.1c1,0.6,2,1.2,3,1.8c0.9,0.5,1.7,1,2.6,1.4
		c0.3,0.1,0.4,0.4,0.5,0.6c0.1,0.6,0.2,1.1,0.3,1.7c0,0.2,0,0.3-0.1,0.5c-0.9,1.6-1.7,3.2-2.6,4.7c-1,1.6-2,3.1-2.8,4.8
		C94.4,23.3,94.3,23.7,94.1,24.1z"/>
	<path fill="#eeeeee" d="M32.4,112.4c-1.8,3.3-3.5,6.5-5.3,9.8c1.2,0.6,2.4,1.3,3.6,1.9c1.8-3.2,3.6-6.3,5.4-9.5c0.8,0.5,1.6,0.9,2.4,1.4
		c-0.1,0.2-0.1,0.5-0.2,0.7c-1.1,2-2.3,4-3.4,6c-0.8,1.4-1.5,2.8-2.2,4.2c-0.1,0.2-0.3,0.4-0.5,0.5c-0.3,0.1-0.5,0.1-0.8,0.3
		c-0.5,0.3-0.9,0.1-1.3-0.1c-1.6-0.9-3.2-1.7-4.8-2.6c-0.1,0-0.1-0.1-0.2-0.1c-1.2-0.4-1.4-1.4-1.7-2.4c-0.1-0.2,0-0.4,0.1-0.7
		c0.6-1,1.2-2,1.8-3c0.9-1.6,1.8-3.1,2.7-4.7c0.5-0.9,1-1.8,1.4-2.6c0.2-0.4,0.4-0.4,0.8-0.2c0.7,0.4,1.3,0.8,2,1.1
		C32.3,112.3,32.3,112.3,32.4,112.4z"/>
	<path fill="#eeeeee" d="M78.9,121.5c0.2,0.7,0.4,1.3,0.6,1.9c1.8-0.5,3.4-1,5.2-1.6c0.3,0.9,0.6,1.7,0.9,2.6c0.1,0.3-0.1,0.4-0.3,0.5
		c-0.9,0.2-1.7,0.4-2.6,0.7c-0.7,0.2-1.4,0.4-2.2,0.7c0.3,1,0.5,1.9,0.8,2.9c1.8-0.5,3.5-1.3,5.4-1.6c0.1,0.4,0.3,0.7,0.4,1.1
		c0.1,0.5,0.3,0.9,0.4,1.4c0.1,0.4,0,0.6-0.4,0.7c-0.7,0.2-1.5,0.4-2.2,0.6c-1.3,0.4-2.7,0.7-4,1.1c-0.5,0.1-0.9,0.3-1.4,0.4
		c-0.5,0.1-0.6,0.1-0.7-0.4c-0.1-0.6-0.2-1.1-0.4-1.7c-0.2-0.8-0.5-1.5-0.8-2.2c-0.3-0.9-0.5-1.9-0.8-2.8c-0.3-1.1-0.7-2.3-1-3.4
		c-0.2-0.9-0.4-1.9-0.8-2.8c0-0.1,0-0.2,0-0.3c2.7-0.8,5.4-1.5,8.1-2.3c0.3,0.9,0.6,1.8,0.9,2.7c0.1,0.3,0,0.4-0.3,0.5
		c-0.7,0.2-1.5,0.4-2.2,0.6C80.6,120.9,79.8,121.2,78.9,121.5z"/>
	<path fill="#eeeeee" d="M96.5,122.6c-0.4-0.8-0.8-1.5-1.2-2.2c-0.2-0.3-0.4-0.2-0.6-0.1c-1,0.6-2.1,1.2-3.2,1.8c-0.2,0.1-0.4,0.2-0.7,0.1
		c-0.4-0.1-0.8-0.2-1.2-0.3c-0.1,0-0.3-0.1-0.4-0.3c-0.6-1-1.2-2-1.8-3.1c-0.2-0.3-0.4-0.7-0.6-1c-0.1-0.2-0.1-0.4-0.1-0.6
		c0-0.4,0.2-0.7,0.2-1.1c0.1-0.6,0.5-1,1-1.2c1.8-1.1,3.7-2.1,5.5-3.2c0.1,0,0.1,0,0.2-0.1c0.2,0.2,0.4,0.4,0.5,0.6
		c0.3,0.5,0.6,0.9,0.8,1.4c0.4,0.7,0.3,0.8-0.3,1.2c-1.4,0.8-2.8,1.5-4.2,2.3c-0.1,0-0.1,0.1-0.2,0.2c0.4,0.6,0.7,1.2,1.1,1.8
		c0.2-0.1,0.3-0.1,0.4-0.1c0.9-0.5,1.9-1.1,2.8-1.6c0.5-0.3,0.9-0.4,1.5-0.2c0.8,0.2,1.2,0.6,1.6,1.2c0.5,0.9,1.1,1.8,1.7,2.7
		c0.3,0.5,0.6,0.9,0.9,1.4c0.1,0.1,0.1,0.3,0.1,0.4c-0.1,0.6-0.3,1.1-0.4,1.7c-0.1,0.3-0.2,0.4-0.4,0.5c-0.3,0.1-0.6,0.3-0.9,0.5
		c-1.6,0.9-3.3,1.7-4.9,2.6c-0.2,0.1-0.4,0.2-0.6,0.4c-0.6-0.9-1.1-1.7-1.6-2.6c0.8-0.6,1.8-0.9,2.6-1.4
		C94.7,123.6,95.6,123.1,96.5,122.6z"/>
	<path fill="#eeeeee" d="M37.3,7.7c-0.1-0.2-0.2-0.4-0.2-0.5c-0.2-0.7-0.5-1.3-0.7-2c-0.2-0.5-0.1-0.6,0.4-0.7c0,0,0.1,0,0.1,0c1.7-0.2,3.3-1,5-1.5
		c0.8-0.2,1.5-0.5,2.3-0.7c0.5-0.1,0.5-0.1,0.6,0.4c0.3,1,0.6,2,0.9,3.1c0.3,0.9,0.5,1.8,0.7,2.7c0.3,0.9,0.5,1.8,0.8,2.7
		c0.3,0.9,0.5,1.8,0.8,2.8c0.2,0.7,0.4,1.3,0.7,2c-2.7,0.9-5.4,1.7-8.2,2.6c-0.3-0.9-0.6-1.9-0.9-2.8c1.7-0.7,3.5-1.1,5.3-1.8
		c-0.1-0.7-0.4-1.2-0.7-1.9c-1.7,0.5-3.5,1.1-5.2,1.6c-0.3-1-0.7-1.9-1-2.9c1.7-0.9,3.5-1,5.3-1.6C43,8,42.7,7.1,42.4,6.2
		C40.7,6.7,39,7.2,37.3,7.7z"/>
	<path fill="#eeeeee" d="M27.1,12.5c0.5,0.8,0.9,1.6,1.4,2.4c0.7-0.4,1.2-0.7,1.8-1.1c0.6-0.3,1.2-0.7,1.8-1c0.1-0.1,0.3,0,0.4,0
		c0.5,0.1,1,0.3,1.5,0.4c0.1,0,0.3,0.1,0.4,0.3c0.6,1,1.2,2,1.8,3c0.2,0.4,0.4,0.7,0.6,1.1c0,0.1,0.1,0.1,0.1,0.1
		c0.2,0.4-0.3,1.9-0.7,2.1c-1,0.6-1.9,1.1-2.9,1.7c-1,0.6-2,1.2-3.1,1.8c-0.4,0.2-0.6,0.2-0.8-0.3c-0.4-0.7-0.8-1.4-1.2-2.2
		c1.7-0.9,3.4-1.9,5.2-2.9c-0.3-0.6-0.6-1.1-0.9-1.8c-0.5,0.2-0.9,0.4-1.4,0.7c-0.8,0.4-1.5,0.9-2.3,1.3c-0.1,0.1-0.3,0.1-0.5,0.1
		c-0.5-0.1-1-0.3-1.5-0.4c-0.2-0.1-0.4-0.2-0.5-0.4c-0.8-1.3-1.6-2.7-2.3-4c-0.1-0.2-0.2-0.3-0.3-0.5c-0.3-0.4-0.4-0.8-0.1-1.3
		c0.1-0.3,0.1-0.6,0.2-0.9c0.1-0.2,0.2-0.3,0.4-0.4c0.5-0.3,1.1-0.6,1.6-0.9c1-0.6,2.1-1.2,3.1-1.7c0.5-0.3,1-0.5,1.6-0.8
		c0.1,0.1,0.2,0.2,0.3,0.3c0.3,0.6,0.7,1.2,1,1.7c0.3,0.5,0.2,0.5-0.2,0.8c-1.3,0.8-2.7,1.5-4,2.3C27.5,12.2,27.3,12.3,27.1,12.5z"
		/>
	<path fill="#eeeeee" d="M51.4,12.2c1.1-0.1,2.1-0.2,3.2-0.4c-0.4-3.8-1-7.5-1.1-11.3c0.8-0.3,2.4-0.5,3.1-0.4c0.1,1,0.2,2,0.3,3
		c0.1,1.1,0.3,2.2,0.4,3.4c0.2,1.7,0.4,3.3,0.6,5c1,0,2-0.2,3-0.2c0.1,1,0.5,1.9,0.4,3c-0.5,0.1-1.1,0.2-1.6,0.2
		c-1.3,0.1-2.6,0.3-3.9,0.4c-1.1,0.1-2.2,0.3-3.4,0.3c-1,0.1-0.9,0.2-1-0.8C51.4,13.7,51.4,12.9,51.4,12.2z"/>
	<path fill="#eeeeee" d="M72.1,120c0.1,1,0.2,1.9,0.3,2.9c-1.1,0.2-2.2,0.3-3.3,0.5c0.4,3.8,0.7,7.6,1.1,11.3c-0.2,0-0.4,0.1-0.6,0.1
		c-0.7,0-1.3,0.1-2,0.1c-0.5,0-0.6-0.1-0.7-0.6c-0.1-1.3-0.2-2.5-0.4-3.8c-0.1-1-0.3-2-0.4-3c-0.1-1.2-0.2-2.4-0.3-3.6
		c0-0.1-0.1-0.1-0.1-0.1c-1.1,0-2.1,0-3.2,0c-0.1-1-0.2-1.9-0.3-2.8c0.9-0.1,1.7-0.2,2.6-0.3c1.3-0.1,2.6-0.2,3.9-0.3
		c0.7-0.1,1.5-0.2,2.2-0.3C71.3,120,71.7,120,72.1,120z"/>
	<path fill="#eeeeee" d="M68.9,1.2c-0.1,1.7-0.2,3.4-0.4,5.1c-0.2,2-0.3,3.9-0.5,5.9c-0.1,0.6-0.1,1.3-0.1,1.9c-0.1,0.4-0.1,0.5-0.6,0.5
		c-0.7-0.1-1.5-0.1-2.2-0.2c-0.4,0-0.5-0.1-0.5-0.5c0-0.6,0.1-1.3,0.1-1.9c0.1-1.4,0.2-2.7,0.2-4.1c0-1.4,0.2-2.8,0.3-4.2
		c0-0.9,0.2-1.9,0.3-2.8c0.1-0.7,0.3-0.9,1-0.8c0.6,0.1,1.2,0.2,1.7,0.3c0.5,0.1,0.5,0.1,0.5,0.6C68.9,1,68.9,1.1,68.9,1.2
		C68.9,1.2,68.9,1.2,68.9,1.2z"/>
	<path fill="#eeeeee" d="M57.9,134.7c-0.4,0-0.8,0-1.2,0c-0.5,0-1,0-1.4,0c-0.5,0-0.6-0.1-0.5-0.6c0.1-1.3,0.3-2.6,0.4-3.9c0.1-1.6,0.3-3.2,0.4-4.8
		c0.1-1,0.2-2,0.3-2.9c0.1-0.5,0.1-1,0.2-1.5c0-0.2,0.1-0.3,0.2-0.6c1,0.1,1.9,0.2,2.9,0.3C58.8,125.3,58.4,130,57.9,134.7z"/>
	<path fill="#eeeeee" d="M49.1,85.4c-1.8-1.8-3.7-3.5-5.5-5.3c4.4-4.2,8.7-8.4,13.1-12.6c-0.4-0.4-0.7-0.8-1.1-1.2c-0.9-0.9-1.8-1.7-2.6-2.6
		c-0.8-0.8-1.5-1.6-2.4-2.4c-0.9-0.9-1.8-1.7-2.7-2.6c-0.6-0.6-1.2-1.2-1.8-1.8c-0.6-0.6-1.2-1.1-1.7-1.6c-0.1-0.1-0.3-0.2-0.4-0.4
		c-0.3-0.3-0.3-0.4,0-0.7c0.6-0.7,1.3-1.4,2-2c0.8-0.8,1.7-1.6,2.5-2.5c0.6-0.6,0.6-0.6,1.2,0c0.5,0.5,1,1.1,1.5,1.6
		c1.2,1.2,2.3,2.5,3.5,3.7c0.9,0.9,1.8,1.8,2.7,2.7c1.1,1,2.2,2,3.2,3.1c0.4,0.4,0.7,0.8,1.1,1.3c1.5-1.4,2.9-2.8,4.3-4.1
		c1.4-1.4,2.8-2.8,4.3-4.2c1.5-1.4,2.6-3,4.1-4.3c1.8,1.8,3.5,3.5,5.3,5.3c-0.1,0.2-0.3,0.4-0.4,0.6c-1.3,1.3-2.6,2.5-3.9,3.8
		c-1,1-2,2.1-3,3.1c-1.2,1.2-2.5,2.5-3.7,3.7c-0.4,0.4-0.9,0.9-1.4,1.3c4.3,4.4,8.5,8.7,12.7,13c-1.8,1.8-3.4,3.7-5.4,5.2
		c-0.8-0.8-1.7-1.6-2.5-2.4c-0.9-0.9-1.8-1.7-2.6-2.6c-1.3-1.4-2.7-2.8-4.1-4.2c-0.9-0.9-1.8-1.7-2.8-2.6c-0.2-0.2-0.5-0.4-0.8-0.7
		C57.9,77.3,53.6,81.5,49.1,85.4z"/>
</g>
</svg>
